<?xml version="1.0" encoding="UTF-8" standalone="no"?>
<!DOCTYPE svg PUBLIC "-//W3C//DTD SVG 1.1//EN"
 "http://www.w3.org/Graphics/SVG/1.1/DTD/svg11.dtd">
<!-- Generated by graphviz version 2.40.1 (20161225.0304)
 -->
<!-- Title: G Pages: 1 -->
<svg width="748pt" height="387pt"
 viewBox="0.00 0.00 748.00 387.00" xmlns="http://www.w3.org/2000/svg" xmlns:xlink="http://www.w3.org/1999/xlink">
<g id="graph0" class="graph" transform="scale(1 1) rotate(0) translate(4 383)">
<title>G</title>
<polygon fill="#ffffff" stroke="transparent" points="-4,4 -4,-383 744,-383 744,4 -4,4"/>
<!-- 140575535441904 -->
<g id="node1" class="node">
<title>140575535441904</title>
<polygon fill="none" stroke="#000000" points="157,-332.5 157,-378.5 580,-378.5 580,-332.5 157,-332.5"/>
<text text-anchor="middle" x="263" y="-351.8" font-family="Times,serif" font-size="14.00" fill="#000000">input_rpn_feature_map: InputLayer</text>
<polyline fill="none" stroke="#000000" points="369,-332.5 369,-378.5 "/>
<text text-anchor="middle" x="396.5" y="-363.3" font-family="Times,serif" font-size="14.00" fill="#000000">input:</text>
<polyline fill="none" stroke="#000000" points="369,-355.5 424,-355.5 "/>
<text text-anchor="middle" x="396.5" y="-340.3" font-family="Times,serif" font-size="14.00" fill="#000000">output:</text>
<polyline fill="none" stroke="#000000" points="424,-332.5 424,-378.5 "/>
<text text-anchor="middle" x="502" y="-363.3" font-family="Times,serif" font-size="14.00" fill="#000000">(None, None, None, 256)</text>
<polyline fill="none" stroke="#000000" points="424,-355.5 580,-355.5 "/>
<text text-anchor="middle" x="502" y="-340.3" font-family="Times,serif" font-size="14.00" fill="#000000">(None, None, None, 256)</text>
</g>
<!-- 140575535441792 -->
<g id="node2" class="node">
<title>140575535441792</title>
<polygon fill="none" stroke="#000000" points="181.5,-249.5 181.5,-295.5 555.5,-295.5 555.5,-249.5 181.5,-249.5"/>
<text text-anchor="middle" x="263" y="-268.8" font-family="Times,serif" font-size="14.00" fill="#000000">rpn_conv_shared: Conv2D</text>
<polyline fill="none" stroke="#000000" points="344.5,-249.5 344.5,-295.5 "/>
<text text-anchor="middle" x="372" y="-280.3" font-family="Times,serif" font-size="14.00" fill="#000000">input:</text>
<polyline fill="none" stroke="#000000" points="344.5,-272.5 399.5,-272.5 "/>
<text text-anchor="middle" x="372" y="-257.3" font-family="Times,serif" font-size="14.00" fill="#000000">output:</text>
<polyline fill="none" stroke="#000000" points="399.5,-249.5 399.5,-295.5 "/>
<text text-anchor="middle" x="477.5" y="-280.3" font-family="Times,serif" font-size="14.00" fill="#000000">(None, None, None, 256)</text>
<polyline fill="none" stroke="#000000" points="399.5,-272.5 555.5,-272.5 "/>
<text text-anchor="middle" x="477.5" y="-257.3" font-family="Times,serif" font-size="14.00" fill="#000000">(None, None, None, 512)</text>
</g>
<!-- 140575535441904&#45;&gt;140575535441792 -->
<g id="edge1" class="edge">
<title>140575535441904&#45;&gt;140575535441792</title>
<path fill="none" stroke="#000000" d="M368.5,-332.3799C368.5,-324.1745 368.5,-314.7679 368.5,-305.8786"/>
<polygon fill="#000000" stroke="#000000" points="372.0001,-305.784 368.5,-295.784 365.0001,-305.784 372.0001,-305.784"/>
</g>
<!-- 140575535020632 -->
<g id="node3" class="node">
<title>140575535020632</title>
<polygon fill="none" stroke="#000000" points="0,-166.5 0,-212.5 359,-212.5 359,-166.5 0,-166.5"/>
<text text-anchor="middle" x="74" y="-185.8" font-family="Times,serif" font-size="14.00" fill="#000000">rpn_class_raw: Conv2D</text>
<polyline fill="none" stroke="#000000" points="148,-166.5 148,-212.5 "/>
<text text-anchor="middle" x="175.5" y="-197.3" font-family="Times,serif" font-size="14.00" fill="#000000">input:</text>
<polyline fill="none" stroke="#000000" points="148,-189.5 203,-189.5 "/>
<text text-anchor="middle" x="175.5" y="-174.3" font-family="Times,serif" font-size="14.00" fill="#000000">output:</text>
<polyline fill="none" stroke="#000000" points="203,-166.5 203,-212.5 "/>
<text text-anchor="middle" x="281" y="-197.3" font-family="Times,serif" font-size="14.00" fill="#000000">(None, None, None, 512)</text>
<polyline fill="none" stroke="#000000" points="203,-189.5 359,-189.5 "/>
<text text-anchor="middle" x="281" y="-174.3" font-family="Times,serif" font-size="14.00" fill="#000000">(None, None, None, 6)</text>
</g>
<!-- 140575535441792&#45;&gt;140575535020632 -->
<g id="edge2" class="edge">
<title>140575535441792&#45;&gt;140575535020632</title>
<path fill="none" stroke="#000000" d="M316.104,-249.4901C292.9576,-239.3253 265.5752,-227.3002 241.4264,-216.6952"/>
<polygon fill="#000000" stroke="#000000" points="242.5613,-213.371 231.998,-212.5547 239.7467,-219.7802 242.5613,-213.371"/>
</g>
<!-- 140575535212920 -->
<g id="node5" class="node">
<title>140575535212920</title>
<polygon fill="none" stroke="#000000" points="377,-166.5 377,-212.5 740,-212.5 740,-166.5 377,-166.5"/>
<text text-anchor="middle" x="453" y="-185.8" font-family="Times,serif" font-size="14.00" fill="#000000">rpn_bbox_pred: Conv2D</text>
<polyline fill="none" stroke="#000000" points="529,-166.5 529,-212.5 "/>
<text text-anchor="middle" x="556.5" y="-197.3" font-family="Times,serif" font-size="14.00" fill="#000000">input:</text>
<polyline fill="none" stroke="#000000" points="529,-189.5 584,-189.5 "/>
<text text-anchor="middle" x="556.5" y="-174.3" font-family="Times,serif" font-size="14.00" fill="#000000">output:</text>
<polyline fill="none" stroke="#000000" points="584,-166.5 584,-212.5 "/>
<text text-anchor="middle" x="662" y="-197.3" font-family="Times,serif" font-size="14.00" fill="#000000">(None, None, None, 512)</text>
<polyline fill="none" stroke="#000000" points="584,-189.5 740,-189.5 "/>
<text text-anchor="middle" x="662" y="-174.3" font-family="Times,serif" font-size="14.00" fill="#000000">(None, None, None, 12)</text>
</g>
<!-- 140575535441792&#45;&gt;140575535212920 -->
<g id="edge4" class="edge">
<title>140575535441792&#45;&gt;140575535212920</title>
<path fill="none" stroke="#000000" d="M421.1733,-249.4901C444.4421,-239.3253 471.9694,-227.3002 496.246,-216.6952"/>
<polygon fill="#000000" stroke="#000000" points="497.9616,-219.7652 505.7243,-212.5547 495.1594,-213.3505 497.9616,-219.7652"/>
</g>
<!-- 140575535110632 -->
<g id="node4" class="node">
<title>140575535110632</title>
<polygon fill="none" stroke="#000000" points="19,-83.5 19,-129.5 340,-129.5 340,-83.5 19,-83.5"/>
<text text-anchor="middle" x="80.5" y="-102.8" font-family="Times,serif" font-size="14.00" fill="#000000">lambda_7: Lambda</text>
<polyline fill="none" stroke="#000000" points="142,-83.5 142,-129.5 "/>
<text text-anchor="middle" x="169.5" y="-114.3" font-family="Times,serif" font-size="14.00" fill="#000000">input:</text>
<polyline fill="none" stroke="#000000" points="142,-106.5 197,-106.5 "/>
<text text-anchor="middle" x="169.5" y="-91.3" font-family="Times,serif" font-size="14.00" fill="#000000">output:</text>
<polyline fill="none" stroke="#000000" points="197,-83.5 197,-129.5 "/>
<text text-anchor="middle" x="268.5" y="-114.3" font-family="Times,serif" font-size="14.00" fill="#000000">(None, None, None, 6)</text>
<polyline fill="none" stroke="#000000" points="197,-106.5 340,-106.5 "/>
<text text-anchor="middle" x="268.5" y="-91.3" font-family="Times,serif" font-size="14.00" fill="#000000">(None, None, 2)</text>
</g>
<!-- 140575535020632&#45;&gt;140575535110632 -->
<g id="edge3" class="edge">
<title>140575535020632&#45;&gt;140575535110632</title>
<path fill="none" stroke="#000000" d="M179.5,-166.3799C179.5,-158.1745 179.5,-148.7679 179.5,-139.8786"/>
<polygon fill="#000000" stroke="#000000" points="183.0001,-139.784 179.5,-129.784 176.0001,-139.784 183.0001,-139.784"/>
</g>
<!-- 140575535213424 -->
<g id="node6" class="node">
<title>140575535213424</title>
<polygon fill="none" stroke="#000000" points="19.5,-.5 19.5,-46.5 339.5,-46.5 339.5,-.5 19.5,-.5"/>
<text text-anchor="middle" x="99" y="-19.8" font-family="Times,serif" font-size="14.00" fill="#000000">rpn_class_xxx: Activation</text>
<polyline fill="none" stroke="#000000" points="178.5,-.5 178.5,-46.5 "/>
<text text-anchor="middle" x="206" y="-31.3" font-family="Times,serif" font-size="14.00" fill="#000000">input:</text>
<polyline fill="none" stroke="#000000" points="178.5,-23.5 233.5,-23.5 "/>
<text text-anchor="middle" x="206" y="-8.3" font-family="Times,serif" font-size="14.00" fill="#000000">output:</text>
<polyline fill="none" stroke="#000000" points="233.5,-.5 233.5,-46.5 "/>
<text text-anchor="middle" x="286.5" y="-31.3" font-family="Times,serif" font-size="14.00" fill="#000000">(None, None, 2)</text>
<polyline fill="none" stroke="#000000" points="233.5,-23.5 339.5,-23.5 "/>
<text text-anchor="middle" x="286.5" y="-8.3" font-family="Times,serif" font-size="14.00" fill="#000000">(None, None, 2)</text>
</g>
<!-- 140575535110632&#45;&gt;140575535213424 -->
<g id="edge5" class="edge">
<title>140575535110632&#45;&gt;140575535213424</title>
<path fill="none" stroke="#000000" d="M179.5,-83.3799C179.5,-75.1745 179.5,-65.7679 179.5,-56.8786"/>
<polygon fill="#000000" stroke="#000000" points="183.0001,-56.784 179.5,-46.784 176.0001,-56.784 183.0001,-56.784"/>
</g>
<!-- 140575534488656 -->
<g id="node7" class="node">
<title>140575534488656</title>
<polygon fill="none" stroke="#000000" points="395,-83.5 395,-129.5 722,-129.5 722,-83.5 395,-83.5"/>
<text text-anchor="middle" x="456.5" y="-102.8" font-family="Times,serif" font-size="14.00" fill="#000000">lambda_8: Lambda</text>
<polyline fill="none" stroke="#000000" points="518,-83.5 518,-129.5 "/>
<text text-anchor="middle" x="545.5" y="-114.3" font-family="Times,serif" font-size="14.00" fill="#000000">input:</text>
<polyline fill="none" stroke="#000000" points="518,-106.5 573,-106.5 "/>
<text text-anchor="middle" x="545.5" y="-91.3" font-family="Times,serif" font-size="14.00" fill="#000000">output:</text>
<polyline fill="none" stroke="#000000" points="573,-83.5 573,-129.5 "/>
<text text-anchor="middle" x="647.5" y="-114.3" font-family="Times,serif" font-size="14.00" fill="#000000">(None, None, None, 12)</text>
<polyline fill="none" stroke="#000000" points="573,-106.5 722,-106.5 "/>
<text text-anchor="middle" x="647.5" y="-91.3" font-family="Times,serif" font-size="14.00" fill="#000000">(None, None, 4)</text>
</g>
<!-- 140575535212920&#45;&gt;140575534488656 -->
<g id="edge6" class="edge">
<title>140575535212920&#45;&gt;140575534488656</title>
<path fill="none" stroke="#000000" d="M558.5,-166.3799C558.5,-158.1745 558.5,-148.7679 558.5,-139.8786"/>
<polygon fill="#000000" stroke="#000000" points="562.0001,-139.784 558.5,-129.784 555.0001,-139.784 562.0001,-139.784"/>
</g>
</g>
</svg>
